<svg width="16" height="18" viewBox="0 0 16 18" fill="none" xmlns="http://www.w3.org/2000/svg">
<path d="M3.55556 3.6V0.899999C3.55556 0.661305 3.64921 0.432386 3.81591 0.263604C3.9826 0.094821 4.2087 0 4.44444 0H15.1111C15.3469 0 15.573 0.094821 15.7397 0.263604C15.9064 0.432386 16 0.661305 16 0.899999V13.5C16 13.7387 15.9064 13.9676 15.7397 14.1364C15.573 14.3052 15.3469 14.4 15.1111 14.4H12.4444V17.1C12.4444 17.5968 12.0444 18 11.5493 18H0.895111C0.777891 18.0007 0.661686 17.9779 0.553175 17.933C0.444664 17.8881 0.345985 17.822 0.262808 17.7384C0.17963 17.6547 0.113594 17.5553 0.0684927 17.4457C0.0233916 17.3362 0.000114999 17.2187 0 17.1L0.00266669 4.5C0.00266669 4.0032 0.402667 3.6 0.897778 3.6H3.55556ZM5.33333 3.6H12.4444V12.6H14.2222V1.8H5.33333V3.6ZM3.55556 8.09999V9.89999H8.88889V8.09999H3.55556ZM3.55556 11.7V13.5H8.88889V11.7H3.55556Z" fill="#5A5A5A" fill-opacity="0.7"/>
</svg>
