<svg width="13" height="14" viewBox="0 0 13 14" fill="none" xmlns="http://www.w3.org/2000/svg">
<path fill-rule="evenodd" clip-rule="evenodd" d="M12.9582 10.6884C12.2674 12.6305 9.303 14.7466 4.75434 11.5174H4.75459C3.56069 10.6697 2.51649 9.62574 1.66899 8.43187C-1.56031 3.88331 0.555568 0.919001 2.498 0.22822C2.90513 0.0832658 3.34275 0.327938 3.44297 0.748305C3.58693 1.35154 3.88449 1.98232 4.16478 2.57649C4.26016 2.77867 4.35353 2.97661 4.43818 3.16779C4.59563 3.52343 4.44718 3.94004 4.09953 4.11474L3.1593 4.66257C2.90288 4.79152 2.77542 5.08718 2.86139 5.36109C3.06583 6.01339 3.54644 6.98983 4.87055 8.31566C6.19666 9.63974 7.17288 10.1206 7.82518 10.325C8.0991 10.411 8.39477 10.2835 8.52373 10.0271L9.07157 9.08691C9.24627 8.73927 9.6629 8.59082 10.0185 8.74827C10.209 8.83267 10.4062 8.9257 10.6076 9.02072C11.2025 9.30134 11.8341 9.59932 12.4381 9.74345C12.8582 9.84367 13.1029 10.2813 12.9582 10.6884ZM6 1.55425C6 1.35102 6.16474 1.18628 6.36797 1.18628C7.80877 1.18628 9.25084 1.73611 10.3504 2.83592L6 1.55425ZM6.36797 1.92221C6.16474 1.92221 6 1.75747 6 1.55425L10.3504 2.83595C11.4501 3.93572 12 5.37748 12 6.81831C12 7.02154 11.8353 7.18628 11.632 7.18628C11.4288 7.18628 11.2641 7.02154 11.2641 6.81831C11.2641 5.56468 10.7862 4.31252 9.82998 3.3563L9.82995 3.35626C8.87403 2.40009 7.62163 1.92221 6.36797 1.92221ZM6 3.56434C6 3.35554 6.16926 3.18628 6.37806 3.18628C7.30454 3.18628 8.23195 3.53999 8.93912 4.24716C9.6463 4.95434 10 5.88204 10 6.80822C10 7.01702 9.83074 7.18628 9.62194 7.18628C9.41315 7.18628 9.24388 7.01702 9.24388 6.80822C9.24388 6.07439 8.96415 5.34151 8.40446 4.78182C7.84476 4.22211 7.11216 3.9424 6.37806 3.9424C6.16926 3.9424 6 3.77313 6 3.56434Z" fill="white"/>
</svg>
