<svg width="17" height="15" viewBox="0 0 17 15" fill="none" xmlns="http://www.w3.org/2000/svg">
<path d="M12.997 5.26971C12.997 2.473 10.075 0.186279 6.49429 0.186279C2.91356 0.186279 0 2.46478 0 5.26971C0 6.69274 0.726278 8.00884 2.02682 8.96301L2.13661 12.2121L4.88972 10.1886C5.41331 10.2956 5.9538 10.3531 6.50273 10.3531C10.0835 10.3531 13.0055 8.07465 13.0055 5.27794L12.997 5.26971ZM6.49429 9.30026C5.81023 9.30026 5.30353 9.25914 4.70392 9.0864L2.95579 10.5506L2.87978 8.28029C1.69747 7.55643 1.06408 6.54468 1.06408 5.26149C1.06408 3.03234 3.49627 1.23093 6.48584 1.23093C9.47541 1.23093 11.916 3.03234 11.916 5.26149C11.916 7.49063 9.48386 9.29204 6.48584 9.29204L6.49429 9.30026ZM13.5291 3.53411C13.8331 4.15925 14.0104 4.84198 14.0104 5.55761C14.0104 7.13693 13.1828 8.55996 11.9076 9.55526C10.6239 10.5506 8.88425 11.1593 6.97566 11.1593C6.94188 11.1593 6.89965 11.1593 6.85743 11.1593C7.9384 11.9654 9.3994 12.4671 11.004 12.4671C11.5107 12.4671 12.0089 12.4178 12.4988 12.3191L15.0407 14.1863L15.1336 11.1922C16.3328 10.312 17 9.10285 17 7.78675C17 5.91131 15.5812 4.29086 13.5291 3.54233V3.53411Z" fill="white"/>
</svg>
